<?xml version="1.0" encoding="utf-8" standalone="no"?>
<!DOCTYPE svg PUBLIC "-//W3C//DTD SVG 1.1//EN"
  "http://www.w3.org/Graphics/SVG/1.1/DTD/svg11.dtd">
<svg xmlns:xlink="http://www.w3.org/1999/xlink" width="559.2475pt" height="267.706pt" viewBox="0 0 559.2475 267.706" xmlns="http://www.w3.org/2000/svg" version="1.1">
 <metadata>
  <rdf:RDF xmlns:dc="http://purl.org/dc/elements/1.1/" xmlns:cc="http://creativecommons.org/ns#" xmlns:rdf="http://www.w3.org/1999/02/22-rdf-syntax-ns#">
   <cc:Work>
    <dc:type rdf:resource="http://purl.org/dc/dcmitype/StillImage"/>
    <dc:date>2025-04-08T20:49:04.619939</dc:date>
    <dc:format>image/svg+xml</dc:format>
    <dc:creator>
     <cc:Agent>
      <dc:title>Matplotlib v3.10.1, https://matplotlib.org/</dc:title>
     </cc:Agent>
    </dc:creator>
   </cc:Work>
  </rdf:RDF>
 </metadata>
 <defs>
  <style type="text/css">*{stroke-linejoin: round; stroke-linecap: butt}</style>
 </defs>
 <g id="figure_1">
  <g id="patch_1">
   <path d="M 0 267.706 
L 559.2475 267.706 
L 559.2475 0 
L 0 0 
z
" style="fill: #ffffff"/>
  </g>
  <g id="axes_1">
   <g id="patch_2">
    <path d="M 59.5075 217.536 
L 552.0475 217.536 
L 552.0475 7.2 
L 59.5075 7.2 
z
" style="fill: #ffffff"/>
   </g>
   <g id="matplotlib.axis_1">
    <g id="xtick_1">
     <g id="line2d_1">
      <path d="M 59.5075 217.536 
L 59.5075 7.2 
" clip-path="url(#pe2779755cb)" style="fill: none; stroke: #b0b0b0; stroke-opacity: 0.3; stroke-width: 0.8; stroke-linecap: square"/>
     </g>
     <g id="line2d_2">
      <defs>
       <path id="mb9a1d6e49f" d="M 0 0 
L 0 3.5 
" style="stroke: #000000; stroke-width: 0.8"/>
      </defs>
      <g>
       <use xlink:href="#mb9a1d6e49f" x="59.5075" y="217.536" style="stroke: #000000; stroke-width: 0.8"/>
      </g>
     </g>
     <g id="text_1">
      <!-- $2^{1}$ -->
      <g transform="translate(51.1075 235.933656) scale(0.15 -0.15)">
       <defs>
        <path id="DejaVuSans-32" d="M 1228 531 
L 3431 531 
L 3431 0 
L 469 0 
L 469 531 
Q 828 903 1448 1529 
Q 2069 2156 2228 2338 
Q 2531 2678 2651 2914 
Q 2772 3150 2772 3378 
Q 2772 3750 2511 3984 
Q 2250 4219 1831 4219 
Q 1534 4219 1204 4116 
Q 875 4013 500 3803 
L 500 4441 
Q 881 4594 1212 4672 
Q 1544 4750 1819 4750 
Q 2544 4750 2975 4387 
Q 3406 4025 3406 3419 
Q 3406 3131 3298 2873 
Q 3191 2616 2906 2266 
Q 2828 2175 2409 1742 
Q 1991 1309 1228 531 
z
" transform="scale(0.015625)"/>
        <path id="DejaVuSans-31" d="M 794 531 
L 1825 531 
L 1825 4091 
L 703 3866 
L 703 4441 
L 1819 4666 
L 2450 4666 
L 2450 531 
L 3481 531 
L 3481 0 
L 794 0 
L 794 531 
z
" transform="scale(0.015625)"/>
       </defs>
       <use xlink:href="#DejaVuSans-32" transform="translate(0 0.684375)"/>
       <use xlink:href="#DejaVuSans-31" transform="translate(64.580078 38.965625) scale(0.7)"/>
      </g>
     </g>
    </g>
    <g id="xtick_2">
     <g id="line2d_3">
      <path d="M 100.5525 217.536 
L 100.5525 7.2 
" clip-path="url(#pe2779755cb)" style="fill: none; stroke: #b0b0b0; stroke-opacity: 0.3; stroke-width: 0.8; stroke-linecap: square"/>
     </g>
     <g id="line2d_4">
      <g>
       <use xlink:href="#mb9a1d6e49f" x="100.5525" y="217.536" style="stroke: #000000; stroke-width: 0.8"/>
      </g>
     </g>
     <g id="text_2">
      <!-- $2^{3}$ -->
      <g transform="translate(92.1525 235.933656) scale(0.15 -0.15)">
       <defs>
        <path id="DejaVuSans-33" d="M 2597 2516 
Q 3050 2419 3304 2112 
Q 3559 1806 3559 1356 
Q 3559 666 3084 287 
Q 2609 -91 1734 -91 
Q 1441 -91 1130 -33 
Q 819 25 488 141 
L 488 750 
Q 750 597 1062 519 
Q 1375 441 1716 441 
Q 2309 441 2620 675 
Q 2931 909 2931 1356 
Q 2931 1769 2642 2001 
Q 2353 2234 1838 2234 
L 1294 2234 
L 1294 2753 
L 1863 2753 
Q 2328 2753 2575 2939 
Q 2822 3125 2822 3475 
Q 2822 3834 2567 4026 
Q 2313 4219 1838 4219 
Q 1578 4219 1281 4162 
Q 984 4106 628 3988 
L 628 4550 
Q 988 4650 1302 4700 
Q 1616 4750 1894 4750 
Q 2613 4750 3031 4423 
Q 3450 4097 3450 3541 
Q 3450 3153 3228 2886 
Q 3006 2619 2597 2516 
z
" transform="scale(0.015625)"/>
       </defs>
       <use xlink:href="#DejaVuSans-32" transform="translate(0 0.765625)"/>
       <use xlink:href="#DejaVuSans-33" transform="translate(64.580078 39.046875) scale(0.7)"/>
      </g>
     </g>
    </g>
    <g id="xtick_3">
     <g id="line2d_5">
      <path d="M 162.12 217.536 
L 162.12 7.2 
" clip-path="url(#pe2779755cb)" style="fill: none; stroke: #b0b0b0; stroke-opacity: 0.3; stroke-width: 0.8; stroke-linecap: square"/>
     </g>
     <g id="line2d_6">
      <g>
       <use xlink:href="#mb9a1d6e49f" x="162.12" y="217.536" style="stroke: #000000; stroke-width: 0.8"/>
      </g>
     </g>
     <g id="text_3">
      <!-- $2^{6}$ -->
      <g transform="translate(153.72 235.933656) scale(0.15 -0.15)">
       <defs>
        <path id="DejaVuSans-36" d="M 2113 2584 
Q 1688 2584 1439 2293 
Q 1191 2003 1191 1497 
Q 1191 994 1439 701 
Q 1688 409 2113 409 
Q 2538 409 2786 701 
Q 3034 994 3034 1497 
Q 3034 2003 2786 2293 
Q 2538 2584 2113 2584 
z
M 3366 4563 
L 3366 3988 
Q 3128 4100 2886 4159 
Q 2644 4219 2406 4219 
Q 1781 4219 1451 3797 
Q 1122 3375 1075 2522 
Q 1259 2794 1537 2939 
Q 1816 3084 2150 3084 
Q 2853 3084 3261 2657 
Q 3669 2231 3669 1497 
Q 3669 778 3244 343 
Q 2819 -91 2113 -91 
Q 1303 -91 875 529 
Q 447 1150 447 2328 
Q 447 3434 972 4092 
Q 1497 4750 2381 4750 
Q 2619 4750 2861 4703 
Q 3103 4656 3366 4563 
z
" transform="scale(0.015625)"/>
       </defs>
       <use xlink:href="#DejaVuSans-32" transform="translate(0 0.765625)"/>
       <use xlink:href="#DejaVuSans-36" transform="translate(64.580078 39.046875) scale(0.7)"/>
      </g>
     </g>
    </g>
    <g id="xtick_4">
     <g id="line2d_7">
      <path d="M 223.6875 217.536 
L 223.6875 7.2 
" clip-path="url(#pe2779755cb)" style="fill: none; stroke: #b0b0b0; stroke-opacity: 0.3; stroke-width: 0.8; stroke-linecap: square"/>
     </g>
     <g id="line2d_8">
      <g>
       <use xlink:href="#mb9a1d6e49f" x="223.6875" y="217.536" style="stroke: #000000; stroke-width: 0.8"/>
      </g>
     </g>
     <g id="text_4">
      <!-- $2^{9}$ -->
      <g transform="translate(215.2875 235.933656) scale(0.15 -0.15)">
       <defs>
        <path id="DejaVuSans-39" d="M 703 97 
L 703 672 
Q 941 559 1184 500 
Q 1428 441 1663 441 
Q 2288 441 2617 861 
Q 2947 1281 2994 2138 
Q 2813 1869 2534 1725 
Q 2256 1581 1919 1581 
Q 1219 1581 811 2004 
Q 403 2428 403 3163 
Q 403 3881 828 4315 
Q 1253 4750 1959 4750 
Q 2769 4750 3195 4129 
Q 3622 3509 3622 2328 
Q 3622 1225 3098 567 
Q 2575 -91 1691 -91 
Q 1453 -91 1209 -44 
Q 966 3 703 97 
z
M 1959 2075 
Q 2384 2075 2632 2365 
Q 2881 2656 2881 3163 
Q 2881 3666 2632 3958 
Q 2384 4250 1959 4250 
Q 1534 4250 1286 3958 
Q 1038 3666 1038 3163 
Q 1038 2656 1286 2365 
Q 1534 2075 1959 2075 
z
" transform="scale(0.015625)"/>
       </defs>
       <use xlink:href="#DejaVuSans-32" transform="translate(0 0.765625)"/>
       <use xlink:href="#DejaVuSans-39" transform="translate(64.580078 39.046875) scale(0.7)"/>
      </g>
     </g>
    </g>
    <g id="xtick_5">
     <g id="line2d_9">
      <path d="M 264.7325 217.536 
L 264.7325 7.2 
" clip-path="url(#pe2779755cb)" style="fill: none; stroke: #b0b0b0; stroke-opacity: 0.3; stroke-width: 0.8; stroke-linecap: square"/>
     </g>
     <g id="line2d_10">
      <g>
       <use xlink:href="#mb9a1d6e49f" x="264.7325" y="217.536" style="stroke: #000000; stroke-width: 0.8"/>
      </g>
     </g>
     <g id="text_5">
      <!-- $2^{11}$ -->
      <g transform="translate(252.9575 235.933656) scale(0.15 -0.15)">
       <use xlink:href="#DejaVuSans-32" transform="translate(0 0.684375)"/>
       <use xlink:href="#DejaVuSans-31" transform="translate(64.580078 38.965625) scale(0.7)"/>
       <use xlink:href="#DejaVuSans-31" transform="translate(109.116211 38.965625) scale(0.7)"/>
      </g>
     </g>
    </g>
    <g id="xtick_6">
     <g id="line2d_11">
      <path d="M 305.7775 217.536 
L 305.7775 7.2 
" clip-path="url(#pe2779755cb)" style="fill: none; stroke: #b0b0b0; stroke-opacity: 0.3; stroke-width: 0.8; stroke-linecap: square"/>
     </g>
     <g id="line2d_12">
      <g>
       <use xlink:href="#mb9a1d6e49f" x="305.7775" y="217.536" style="stroke: #000000; stroke-width: 0.8"/>
      </g>
     </g>
     <g id="text_6">
      <!-- $2^{13}$ -->
      <g transform="translate(294.0025 235.933656) scale(0.15 -0.15)">
       <use xlink:href="#DejaVuSans-32" transform="translate(0 0.765625)"/>
       <use xlink:href="#DejaVuSans-31" transform="translate(64.580078 39.046875) scale(0.7)"/>
       <use xlink:href="#DejaVuSans-33" transform="translate(109.116211 39.046875) scale(0.7)"/>
      </g>
     </g>
    </g>
    <g id="xtick_7">
     <g id="line2d_13">
      <path d="M 346.8225 217.536 
L 346.8225 7.2 
" clip-path="url(#pe2779755cb)" style="fill: none; stroke: #b0b0b0; stroke-opacity: 0.3; stroke-width: 0.8; stroke-linecap: square"/>
     </g>
     <g id="line2d_14">
      <g>
       <use xlink:href="#mb9a1d6e49f" x="346.8225" y="217.536" style="stroke: #000000; stroke-width: 0.8"/>
      </g>
     </g>
     <g id="text_7">
      <!-- $2^{15}$ -->
      <g transform="translate(335.0475 235.933656) scale(0.15 -0.15)">
       <defs>
        <path id="DejaVuSans-35" d="M 691 4666 
L 3169 4666 
L 3169 4134 
L 1269 4134 
L 1269 2991 
Q 1406 3038 1543 3061 
Q 1681 3084 1819 3084 
Q 2600 3084 3056 2656 
Q 3513 2228 3513 1497 
Q 3513 744 3044 326 
Q 2575 -91 1722 -91 
Q 1428 -91 1123 -41 
Q 819 9 494 109 
L 494 744 
Q 775 591 1075 516 
Q 1375 441 1709 441 
Q 2250 441 2565 725 
Q 2881 1009 2881 1497 
Q 2881 1984 2565 2268 
Q 2250 2553 1709 2553 
Q 1456 2553 1204 2497 
Q 953 2441 691 2322 
L 691 4666 
z
" transform="scale(0.015625)"/>
       </defs>
       <use xlink:href="#DejaVuSans-32" transform="translate(0 0.684375)"/>
       <use xlink:href="#DejaVuSans-31" transform="translate(64.580078 38.965625) scale(0.7)"/>
       <use xlink:href="#DejaVuSans-35" transform="translate(109.116211 38.965625) scale(0.7)"/>
      </g>
     </g>
    </g>
    <g id="xtick_8">
     <g id="line2d_15">
      <path d="M 387.8675 217.536 
L 387.8675 7.2 
" clip-path="url(#pe2779755cb)" style="fill: none; stroke: #b0b0b0; stroke-opacity: 0.3; stroke-width: 0.8; stroke-linecap: square"/>
     </g>
     <g id="line2d_16">
      <g>
       <use xlink:href="#mb9a1d6e49f" x="387.8675" y="217.536" style="stroke: #000000; stroke-width: 0.8"/>
      </g>
     </g>
     <g id="text_8">
      <!-- $2^{17}$ -->
      <g transform="translate(376.0925 235.933656) scale(0.15 -0.15)">
       <defs>
        <path id="DejaVuSans-37" d="M 525 4666 
L 3525 4666 
L 3525 4397 
L 1831 0 
L 1172 0 
L 2766 4134 
L 525 4134 
L 525 4666 
z
" transform="scale(0.015625)"/>
       </defs>
       <use xlink:href="#DejaVuSans-32" transform="translate(0 0.684375)"/>
       <use xlink:href="#DejaVuSans-31" transform="translate(64.580078 38.965625) scale(0.7)"/>
       <use xlink:href="#DejaVuSans-37" transform="translate(109.116211 38.965625) scale(0.7)"/>
      </g>
     </g>
    </g>
    <g id="xtick_9">
     <g id="line2d_17">
      <path d="M 428.9125 217.536 
L 428.9125 7.2 
" clip-path="url(#pe2779755cb)" style="fill: none; stroke: #b0b0b0; stroke-opacity: 0.3; stroke-width: 0.8; stroke-linecap: square"/>
     </g>
     <g id="line2d_18">
      <g>
       <use xlink:href="#mb9a1d6e49f" x="428.9125" y="217.536" style="stroke: #000000; stroke-width: 0.8"/>
      </g>
     </g>
     <g id="text_9">
      <!-- $2^{19}$ -->
      <g transform="translate(417.1375 235.933656) scale(0.15 -0.15)">
       <use xlink:href="#DejaVuSans-32" transform="translate(0 0.765625)"/>
       <use xlink:href="#DejaVuSans-31" transform="translate(64.580078 39.046875) scale(0.7)"/>
       <use xlink:href="#DejaVuSans-39" transform="translate(109.116211 39.046875) scale(0.7)"/>
      </g>
     </g>
    </g>
    <g id="xtick_10">
     <g id="line2d_19">
      <path d="M 469.9575 217.536 
L 469.9575 7.2 
" clip-path="url(#pe2779755cb)" style="fill: none; stroke: #b0b0b0; stroke-opacity: 0.3; stroke-width: 0.8; stroke-linecap: square"/>
     </g>
     <g id="line2d_20">
      <g>
       <use xlink:href="#mb9a1d6e49f" x="469.9575" y="217.536" style="stroke: #000000; stroke-width: 0.8"/>
      </g>
     </g>
     <g id="text_10">
      <!-- $2^{21}$ -->
      <g transform="translate(458.1825 235.933656) scale(0.15 -0.15)">
       <use xlink:href="#DejaVuSans-32" transform="translate(0 0.765625)"/>
       <use xlink:href="#DejaVuSans-32" transform="translate(64.580078 39.046875) scale(0.7)"/>
       <use xlink:href="#DejaVuSans-31" transform="translate(109.116211 39.046875) scale(0.7)"/>
      </g>
     </g>
    </g>
    <g id="xtick_11">
     <g id="line2d_21">
      <path d="M 531.525 217.536 
L 531.525 7.2 
" clip-path="url(#pe2779755cb)" style="fill: none; stroke: #b0b0b0; stroke-opacity: 0.3; stroke-width: 0.8; stroke-linecap: square"/>
     </g>
     <g id="line2d_22">
      <g>
       <use xlink:href="#mb9a1d6e49f" x="531.525" y="217.536" style="stroke: #000000; stroke-width: 0.8"/>
      </g>
     </g>
     <g id="text_11">
      <!-- $2^{24}$ -->
      <g transform="translate(519.75 235.933656) scale(0.15 -0.15)">
       <defs>
        <path id="DejaVuSans-34" d="M 2419 4116 
L 825 1625 
L 2419 1625 
L 2419 4116 
z
M 2253 4666 
L 3047 4666 
L 3047 1625 
L 3713 1625 
L 3713 1100 
L 3047 1100 
L 3047 0 
L 2419 0 
L 2419 1100 
L 313 1100 
L 313 1709 
L 2253 4666 
z
" transform="scale(0.015625)"/>
       </defs>
       <use xlink:href="#DejaVuSans-32" transform="translate(0 0.765625)"/>
       <use xlink:href="#DejaVuSans-32" transform="translate(64.580078 39.046875) scale(0.7)"/>
       <use xlink:href="#DejaVuSans-34" transform="translate(109.116211 39.046875) scale(0.7)"/>
      </g>
     </g>
    </g>
    <g id="text_12">
     <!-- Размер массива -->
     <g transform="translate(234.473125 256.970531) scale(0.17 -0.17)">
      <defs>
       <path id="DejaVuSans-420" d="M 1259 4147 
L 1259 2394 
L 2053 2394 
Q 2494 2394 2734 2622 
Q 2975 2850 2975 3272 
Q 2975 3691 2734 3919 
Q 2494 4147 2053 4147 
L 1259 4147 
z
M 628 4666 
L 2053 4666 
Q 2838 4666 3239 4311 
Q 3641 3956 3641 3272 
Q 3641 2581 3239 2228 
Q 2838 1875 2053 1875 
L 1259 1875 
L 1259 0 
L 628 0 
L 628 4666 
z
" transform="scale(0.015625)"/>
       <path id="DejaVuSans-430" d="M 2194 1759 
Q 1497 1759 1228 1600 
Q 959 1441 959 1056 
Q 959 750 1161 570 
Q 1363 391 1709 391 
Q 2188 391 2477 730 
Q 2766 1069 2766 1631 
L 2766 1759 
L 2194 1759 
z
M 3341 1997 
L 3341 0 
L 2766 0 
L 2766 531 
Q 2569 213 2275 61 
Q 1981 -91 1556 -91 
Q 1019 -91 701 211 
Q 384 513 384 1019 
Q 384 1609 779 1909 
Q 1175 2209 1959 2209 
L 2766 2209 
L 2766 2266 
Q 2766 2663 2505 2880 
Q 2244 3097 1772 3097 
Q 1472 3097 1187 3025 
Q 903 2953 641 2809 
L 641 3341 
Q 956 3463 1253 3523 
Q 1550 3584 1831 3584 
Q 2591 3584 2966 3190 
Q 3341 2797 3341 1997 
z
" transform="scale(0.015625)"/>
       <path id="DejaVuSans-437" d="M 2206 1888 
Q 2594 1813 2809 1584 
Q 3025 1356 3025 1019 
Q 3025 478 2622 193 
Q 2219 -91 1475 -91 
Q 1225 -91 961 -47 
Q 697 -3 416 84 
L 416 619 
Q 638 503 903 445 
Q 1169 388 1459 388 
Q 1931 388 2195 563 
Q 2459 738 2459 1019 
Q 2459 1294 2225 1461 
Q 1991 1628 1563 1628 
L 1100 1628 
L 1100 2103 
L 1584 2103 
Q 1947 2103 2158 2242 
Q 2369 2381 2369 2600 
Q 2369 2800 2151 2944 
Q 1934 3088 1563 3088 
Q 1341 3088 1089 3047 
Q 838 3006 534 2916 
L 534 3438 
Q 841 3513 1106 3550 
Q 1372 3588 1609 3588 
Q 2222 3588 2576 3342 
Q 2931 3097 2931 2656 
Q 2931 2366 2743 2164 
Q 2556 1963 2206 1888 
z
" transform="scale(0.015625)"/>
       <path id="DejaVuSans-43c" d="M 581 3500 
L 1422 3500 
L 2416 1156 
L 3413 3500 
L 4247 3500 
L 4247 0 
L 3669 0 
L 3669 2950 
L 2703 672 
L 2128 672 
L 1159 2950 
L 1159 0 
L 581 0 
L 581 3500 
z
" transform="scale(0.015625)"/>
       <path id="DejaVuSans-435" d="M 3597 1894 
L 3597 1613 
L 953 1613 
Q 991 1019 1311 708 
Q 1631 397 2203 397 
Q 2534 397 2845 478 
Q 3156 559 3463 722 
L 3463 178 
Q 3153 47 2828 -22 
Q 2503 -91 2169 -91 
Q 1331 -91 842 396 
Q 353 884 353 1716 
Q 353 2575 817 3079 
Q 1281 3584 2069 3584 
Q 2775 3584 3186 3129 
Q 3597 2675 3597 1894 
z
M 3022 2063 
Q 3016 2534 2758 2815 
Q 2500 3097 2075 3097 
Q 1594 3097 1305 2825 
Q 1016 2553 972 2059 
L 3022 2063 
z
" transform="scale(0.015625)"/>
       <path id="DejaVuSans-440" d="M 1159 525 
L 1159 -1331 
L 581 -1331 
L 581 3500 
L 1159 3500 
L 1159 2969 
Q 1341 3281 1617 3432 
Q 1894 3584 2278 3584 
Q 2916 3584 3314 3078 
Q 3713 2572 3713 1747 
Q 3713 922 3314 415 
Q 2916 -91 2278 -91 
Q 1894 -91 1617 61 
Q 1341 213 1159 525 
z
M 3116 1747 
Q 3116 2381 2855 2742 
Q 2594 3103 2138 3103 
Q 1681 3103 1420 2742 
Q 1159 2381 1159 1747 
Q 1159 1113 1420 752 
Q 1681 391 2138 391 
Q 2594 391 2855 752 
Q 3116 1113 3116 1747 
z
" transform="scale(0.015625)"/>
       <path id="DejaVuSans-20" transform="scale(0.015625)"/>
       <path id="DejaVuSans-441" d="M 3122 3366 
L 3122 2828 
Q 2878 2963 2633 3030 
Q 2388 3097 2138 3097 
Q 1578 3097 1268 2742 
Q 959 2388 959 1747 
Q 959 1106 1268 751 
Q 1578 397 2138 397 
Q 2388 397 2633 464 
Q 2878 531 3122 666 
L 3122 134 
Q 2881 22 2623 -34 
Q 2366 -91 2075 -91 
Q 1284 -91 818 406 
Q 353 903 353 1747 
Q 353 2603 823 3093 
Q 1294 3584 2113 3584 
Q 2378 3584 2631 3529 
Q 2884 3475 3122 3366 
z
" transform="scale(0.015625)"/>
       <path id="DejaVuSans-438" d="M 3578 3500 
L 3578 0 
L 3006 0 
L 3006 2809 
L 1319 0 
L 581 0 
L 581 3500 
L 1153 3500 
L 1153 697 
L 2838 3500 
L 3578 3500 
z
" transform="scale(0.015625)"/>
       <path id="DejaVuSans-432" d="M 1156 1613 
L 1156 459 
L 1975 459 
Q 2369 459 2575 607 
Q 2781 756 2781 1038 
Q 2781 1319 2575 1466 
Q 2369 1613 1975 1613 
L 1156 1613 
z
M 1156 3041 
L 1156 2072 
L 1913 2072 
Q 2238 2072 2444 2201 
Q 2650 2331 2650 2563 
Q 2650 2794 2444 2917 
Q 2238 3041 1913 3041 
L 1156 3041 
z
M 581 3500 
L 1950 3500 
Q 2566 3500 2897 3275 
Q 3228 3050 3228 2634 
Q 3228 2313 3059 2123 
Q 2891 1934 2559 1888 
Q 2956 1813 3175 1575 
Q 3394 1338 3394 981 
Q 3394 513 3033 256 
Q 2672 0 2003 0 
L 581 0 
L 581 3500 
z
" transform="scale(0.015625)"/>
      </defs>
      <use xlink:href="#DejaVuSans-420"/>
      <use xlink:href="#DejaVuSans-430" transform="translate(60.302734 0)"/>
      <use xlink:href="#DejaVuSans-437" transform="translate(121.582031 0)"/>
      <use xlink:href="#DejaVuSans-43c" transform="translate(174.755859 0)"/>
      <use xlink:href="#DejaVuSans-435" transform="translate(250.195312 0)"/>
      <use xlink:href="#DejaVuSans-440" transform="translate(311.71875 0)"/>
      <use xlink:href="#DejaVuSans-20" transform="translate(375.195312 0)"/>
      <use xlink:href="#DejaVuSans-43c" transform="translate(406.982422 0)"/>
      <use xlink:href="#DejaVuSans-430" transform="translate(482.421875 0)"/>
      <use xlink:href="#DejaVuSans-441" transform="translate(543.701172 0)"/>
      <use xlink:href="#DejaVuSans-441" transform="translate(598.681641 0)"/>
      <use xlink:href="#DejaVuSans-438" transform="translate(653.662109 0)"/>
      <use xlink:href="#DejaVuSans-432" transform="translate(718.652344 0)"/>
      <use xlink:href="#DejaVuSans-430" transform="translate(777.587891 0)"/>
     </g>
    </g>
   </g>
   <g id="matplotlib.axis_2">
    <g id="ytick_1">
     <g id="line2d_23">
      <path d="M 59.5075 211.687759 
L 552.0475 211.687759 
" clip-path="url(#pe2779755cb)" style="fill: none; stroke: #b0b0b0; stroke-opacity: 0.3; stroke-width: 0.8; stroke-linecap: square"/>
     </g>
     <g id="line2d_24">
      <defs>
       <path id="m79a57de59e" d="M 0 0 
L -3.5 0 
" style="stroke: #000000; stroke-width: 0.8"/>
      </defs>
      <g>
       <use xlink:href="#m79a57de59e" x="59.5075" y="211.687759" style="stroke: #000000; stroke-width: 0.8"/>
      </g>
     </g>
     <g id="text_13">
      <!-- 0.0 -->
      <g transform="translate(28.652813 217.386587) scale(0.15 -0.15)">
       <defs>
        <path id="DejaVuSans-30" d="M 2034 4250 
Q 1547 4250 1301 3770 
Q 1056 3291 1056 2328 
Q 1056 1369 1301 889 
Q 1547 409 2034 409 
Q 2525 409 2770 889 
Q 3016 1369 3016 2328 
Q 3016 3291 2770 3770 
Q 2525 4250 2034 4250 
z
M 2034 4750 
Q 2819 4750 3233 4129 
Q 3647 3509 3647 2328 
Q 3647 1150 3233 529 
Q 2819 -91 2034 -91 
Q 1250 -91 836 529 
Q 422 1150 422 2328 
Q 422 3509 836 4129 
Q 1250 4750 2034 4750 
z
" transform="scale(0.015625)"/>
        <path id="DejaVuSans-2e" d="M 684 794 
L 1344 794 
L 1344 0 
L 684 0 
L 684 794 
z
" transform="scale(0.015625)"/>
       </defs>
       <use xlink:href="#DejaVuSans-30"/>
       <use xlink:href="#DejaVuSans-2e" transform="translate(63.623047 0)"/>
       <use xlink:href="#DejaVuSans-30" transform="translate(95.410156 0)"/>
      </g>
     </g>
    </g>
    <g id="ytick_2">
     <g id="line2d_25">
      <path d="M 59.5075 183.340544 
L 552.0475 183.340544 
" clip-path="url(#pe2779755cb)" style="fill: none; stroke: #b0b0b0; stroke-opacity: 0.3; stroke-width: 0.8; stroke-linecap: square"/>
     </g>
     <g id="line2d_26">
      <g>
       <use xlink:href="#m79a57de59e" x="59.5075" y="183.340544" style="stroke: #000000; stroke-width: 0.8"/>
      </g>
     </g>
     <g id="text_14">
      <!-- 0.6 -->
      <g transform="translate(28.652813 189.039372) scale(0.15 -0.15)">
       <use xlink:href="#DejaVuSans-30"/>
       <use xlink:href="#DejaVuSans-2e" transform="translate(63.623047 0)"/>
       <use xlink:href="#DejaVuSans-36" transform="translate(95.410156 0)"/>
      </g>
     </g>
    </g>
    <g id="ytick_3">
     <g id="line2d_27">
      <path d="M 59.5075 154.993328 
L 552.0475 154.993328 
" clip-path="url(#pe2779755cb)" style="fill: none; stroke: #b0b0b0; stroke-opacity: 0.3; stroke-width: 0.8; stroke-linecap: square"/>
     </g>
     <g id="line2d_28">
      <g>
       <use xlink:href="#m79a57de59e" x="59.5075" y="154.993328" style="stroke: #000000; stroke-width: 0.8"/>
      </g>
     </g>
     <g id="text_15">
      <!-- 1.2 -->
      <g transform="translate(28.652813 160.692157) scale(0.15 -0.15)">
       <use xlink:href="#DejaVuSans-31"/>
       <use xlink:href="#DejaVuSans-2e" transform="translate(63.623047 0)"/>
       <use xlink:href="#DejaVuSans-32" transform="translate(95.410156 0)"/>
      </g>
     </g>
    </g>
    <g id="ytick_4">
     <g id="line2d_29">
      <path d="M 59.5075 126.646113 
L 552.0475 126.646113 
" clip-path="url(#pe2779755cb)" style="fill: none; stroke: #b0b0b0; stroke-opacity: 0.3; stroke-width: 0.8; stroke-linecap: square"/>
     </g>
     <g id="line2d_30">
      <g>
       <use xlink:href="#m79a57de59e" x="59.5075" y="126.646113" style="stroke: #000000; stroke-width: 0.8"/>
      </g>
     </g>
     <g id="text_16">
      <!-- 1.8 -->
      <g transform="translate(28.652813 132.344941) scale(0.15 -0.15)">
       <defs>
        <path id="DejaVuSans-38" d="M 2034 2216 
Q 1584 2216 1326 1975 
Q 1069 1734 1069 1313 
Q 1069 891 1326 650 
Q 1584 409 2034 409 
Q 2484 409 2743 651 
Q 3003 894 3003 1313 
Q 3003 1734 2745 1975 
Q 2488 2216 2034 2216 
z
M 1403 2484 
Q 997 2584 770 2862 
Q 544 3141 544 3541 
Q 544 4100 942 4425 
Q 1341 4750 2034 4750 
Q 2731 4750 3128 4425 
Q 3525 4100 3525 3541 
Q 3525 3141 3298 2862 
Q 3072 2584 2669 2484 
Q 3125 2378 3379 2068 
Q 3634 1759 3634 1313 
Q 3634 634 3220 271 
Q 2806 -91 2034 -91 
Q 1263 -91 848 271 
Q 434 634 434 1313 
Q 434 1759 690 2068 
Q 947 2378 1403 2484 
z
M 1172 3481 
Q 1172 3119 1398 2916 
Q 1625 2713 2034 2713 
Q 2441 2713 2670 2916 
Q 2900 3119 2900 3481 
Q 2900 3844 2670 4047 
Q 2441 4250 2034 4250 
Q 1625 4250 1398 4047 
Q 1172 3844 1172 3481 
z
" transform="scale(0.015625)"/>
       </defs>
       <use xlink:href="#DejaVuSans-31"/>
       <use xlink:href="#DejaVuSans-2e" transform="translate(63.623047 0)"/>
       <use xlink:href="#DejaVuSans-38" transform="translate(95.410156 0)"/>
      </g>
     </g>
    </g>
    <g id="ytick_5">
     <g id="line2d_31">
      <path d="M 59.5075 98.298898 
L 552.0475 98.298898 
" clip-path="url(#pe2779755cb)" style="fill: none; stroke: #b0b0b0; stroke-opacity: 0.3; stroke-width: 0.8; stroke-linecap: square"/>
     </g>
     <g id="line2d_32">
      <g>
       <use xlink:href="#m79a57de59e" x="59.5075" y="98.298898" style="stroke: #000000; stroke-width: 0.8"/>
      </g>
     </g>
     <g id="text_17">
      <!-- 2.4 -->
      <g transform="translate(28.652813 103.997726) scale(0.15 -0.15)">
       <use xlink:href="#DejaVuSans-32"/>
       <use xlink:href="#DejaVuSans-2e" transform="translate(63.623047 0)"/>
       <use xlink:href="#DejaVuSans-34" transform="translate(95.410156 0)"/>
      </g>
     </g>
    </g>
    <g id="ytick_6">
     <g id="line2d_33">
      <path d="M 59.5075 69.951683 
L 552.0475 69.951683 
" clip-path="url(#pe2779755cb)" style="fill: none; stroke: #b0b0b0; stroke-opacity: 0.3; stroke-width: 0.8; stroke-linecap: square"/>
     </g>
     <g id="line2d_34">
      <g>
       <use xlink:href="#m79a57de59e" x="59.5075" y="69.951683" style="stroke: #000000; stroke-width: 0.8"/>
      </g>
     </g>
     <g id="text_18">
      <!-- 3.0 -->
      <g transform="translate(28.652813 75.650511) scale(0.15 -0.15)">
       <use xlink:href="#DejaVuSans-33"/>
       <use xlink:href="#DejaVuSans-2e" transform="translate(63.623047 0)"/>
       <use xlink:href="#DejaVuSans-30" transform="translate(95.410156 0)"/>
      </g>
     </g>
    </g>
    <g id="ytick_7">
     <g id="line2d_35">
      <path d="M 59.5075 41.604467 
L 552.0475 41.604467 
" clip-path="url(#pe2779755cb)" style="fill: none; stroke: #b0b0b0; stroke-opacity: 0.3; stroke-width: 0.8; stroke-linecap: square"/>
     </g>
     <g id="line2d_36">
      <g>
       <use xlink:href="#m79a57de59e" x="59.5075" y="41.604467" style="stroke: #000000; stroke-width: 0.8"/>
      </g>
     </g>
     <g id="text_19">
      <!-- 3.6 -->
      <g transform="translate(28.652813 47.303295) scale(0.15 -0.15)">
       <use xlink:href="#DejaVuSans-33"/>
       <use xlink:href="#DejaVuSans-2e" transform="translate(63.623047 0)"/>
       <use xlink:href="#DejaVuSans-36" transform="translate(95.410156 0)"/>
      </g>
     </g>
    </g>
    <g id="ytick_8">
     <g id="line2d_37">
      <path d="M 59.5075 13.257252 
L 552.0475 13.257252 
" clip-path="url(#pe2779755cb)" style="fill: none; stroke: #b0b0b0; stroke-opacity: 0.3; stroke-width: 0.8; stroke-linecap: square"/>
     </g>
     <g id="line2d_38">
      <g>
       <use xlink:href="#m79a57de59e" x="59.5075" y="13.257252" style="stroke: #000000; stroke-width: 0.8"/>
      </g>
     </g>
     <g id="text_20">
      <!-- 4.2 -->
      <g transform="translate(28.652813 18.95608) scale(0.15 -0.15)">
       <use xlink:href="#DejaVuSans-34"/>
       <use xlink:href="#DejaVuSans-2e" transform="translate(63.623047 0)"/>
       <use xlink:href="#DejaVuSans-32" transform="translate(95.410156 0)"/>
      </g>
     </g>
    </g>
    <g id="text_21">
     <!-- Время выполнения (мкс) -->
     <g transform="translate(20.117344 223.500188) rotate(-90) scale(0.17 -0.17)">
      <defs>
       <path id="DejaVuSans-412" d="M 1259 2228 
L 1259 519 
L 2272 519 
Q 2781 519 3026 730 
Q 3272 941 3272 1375 
Q 3272 1813 3026 2020 
Q 2781 2228 2272 2228 
L 1259 2228 
z
M 1259 4147 
L 1259 2741 
L 2194 2741 
Q 2656 2741 2882 2914 
Q 3109 3088 3109 3444 
Q 3109 3797 2882 3972 
Q 2656 4147 2194 4147 
L 1259 4147 
z
M 628 4666 
L 2241 4666 
Q 2963 4666 3353 4366 
Q 3744 4066 3744 3513 
Q 3744 3084 3544 2831 
Q 3344 2578 2956 2516 
Q 3422 2416 3680 2098 
Q 3938 1781 3938 1306 
Q 3938 681 3513 340 
Q 3088 0 2303 0 
L 628 0 
L 628 4666 
z
" transform="scale(0.015625)"/>
       <path id="DejaVuSans-44f" d="M 1181 2491 
Q 1181 2231 1381 2084 
Q 1581 1938 1953 1938 
L 2728 1938 
L 2728 3041 
L 1953 3041 
Q 1581 3041 1381 2897 
Q 1181 2753 1181 2491 
z
M 363 0 
L 1431 1534 
Q 1069 1616 828 1830 
Q 588 2044 588 2491 
Q 588 2997 923 3248 
Q 1259 3500 1938 3500 
L 3306 3500 
L 3306 0 
L 2728 0 
L 2728 1478 
L 2013 1478 
L 981 0 
L 363 0 
z
" transform="scale(0.015625)"/>
       <path id="DejaVuSans-44b" d="M 3907 3500 
L 4482 3500 
L 4482 0 
L 3907 0 
L 3907 3500 
z
M 4195 3584 
L 4195 3584 
z
M 2781 1038 
Q 2781 1319 2576 1466 
Q 2372 1613 1978 1613 
L 1159 1613 
L 1159 459 
L 1978 459 
Q 2372 459 2576 607 
Q 2781 756 2781 1038 
z
M 581 3500 
L 1159 3500 
L 1159 2072 
L 2003 2072 
Q 2672 2072 3033 1817 
Q 3394 1563 3394 1038 
Q 3394 513 3033 256 
Q 2672 0 2003 0 
L 581 0 
L 581 3500 
z
" transform="scale(0.015625)"/>
       <path id="DejaVuSans-43f" d="M 3603 3500 
L 3603 0 
L 3025 0 
L 3025 3041 
L 1159 3041 
L 1159 0 
L 581 0 
L 581 3500 
L 3603 3500 
z
" transform="scale(0.015625)"/>
       <path id="DejaVuSans-43e" d="M 1959 3097 
Q 1497 3097 1228 2736 
Q 959 2375 959 1747 
Q 959 1119 1226 758 
Q 1494 397 1959 397 
Q 2419 397 2687 759 
Q 2956 1122 2956 1747 
Q 2956 2369 2687 2733 
Q 2419 3097 1959 3097 
z
M 1959 3584 
Q 2709 3584 3137 3096 
Q 3566 2609 3566 1747 
Q 3566 888 3137 398 
Q 2709 -91 1959 -91 
Q 1206 -91 779 398 
Q 353 888 353 1747 
Q 353 2609 779 3096 
Q 1206 3584 1959 3584 
z
" transform="scale(0.015625)"/>
       <path id="DejaVuSans-43b" d="M 238 0 
L 238 478 
Q 806 566 981 959 
Q 1194 1513 1194 2928 
L 1194 3500 
L 3559 3500 
L 3559 0 
L 2984 0 
L 2984 3041 
L 1769 3041 
L 1769 2694 
Q 1769 1344 1494 738 
Q 1200 91 238 0 
z
" transform="scale(0.015625)"/>
       <path id="DejaVuSans-43d" d="M 581 3500 
L 1159 3500 
L 1159 2072 
L 3025 2072 
L 3025 3500 
L 3603 3500 
L 3603 0 
L 3025 0 
L 3025 1613 
L 1159 1613 
L 1159 0 
L 581 0 
L 581 3500 
z
" transform="scale(0.015625)"/>
       <path id="DejaVuSans-28" d="M 1984 4856 
Q 1566 4138 1362 3434 
Q 1159 2731 1159 2009 
Q 1159 1288 1364 580 
Q 1569 -128 1984 -844 
L 1484 -844 
Q 1016 -109 783 600 
Q 550 1309 550 2009 
Q 550 2706 781 3412 
Q 1013 4119 1484 4856 
L 1984 4856 
z
" transform="scale(0.015625)"/>
       <path id="DejaVuSans-43a" d="M 581 3500 
L 1153 3500 
L 1153 1856 
L 2775 3500 
L 3481 3500 
L 2144 2147 
L 3653 0 
L 3009 0 
L 1769 1766 
L 1153 1141 
L 1153 0 
L 581 0 
L 581 3500 
z
" transform="scale(0.015625)"/>
       <path id="DejaVuSans-29" d="M 513 4856 
L 1013 4856 
Q 1481 4119 1714 3412 
Q 1947 2706 1947 2009 
Q 1947 1309 1714 600 
Q 1481 -109 1013 -844 
L 513 -844 
Q 928 -128 1133 580 
Q 1338 1288 1338 2009 
Q 1338 2731 1133 3434 
Q 928 4138 513 4856 
z
" transform="scale(0.015625)"/>
      </defs>
      <use xlink:href="#DejaVuSans-412"/>
      <use xlink:href="#DejaVuSans-440" transform="translate(68.603516 0)"/>
      <use xlink:href="#DejaVuSans-435" transform="translate(132.080078 0)"/>
      <use xlink:href="#DejaVuSans-43c" transform="translate(193.603516 0)"/>
      <use xlink:href="#DejaVuSans-44f" transform="translate(269.042969 0)"/>
      <use xlink:href="#DejaVuSans-20" transform="translate(329.199219 0)"/>
      <use xlink:href="#DejaVuSans-432" transform="translate(360.986328 0)"/>
      <use xlink:href="#DejaVuSans-44b" transform="translate(419.921875 0)"/>
      <use xlink:href="#DejaVuSans-43f" transform="translate(498.876953 0)"/>
      <use xlink:href="#DejaVuSans-43e" transform="translate(564.257812 0)"/>
      <use xlink:href="#DejaVuSans-43b" transform="translate(625.439453 0)"/>
      <use xlink:href="#DejaVuSans-43d" transform="translate(689.355469 0)"/>
      <use xlink:href="#DejaVuSans-435" transform="translate(754.736328 0)"/>
      <use xlink:href="#DejaVuSans-43d" transform="translate(816.259766 0)"/>
      <use xlink:href="#DejaVuSans-438" transform="translate(881.640625 0)"/>
      <use xlink:href="#DejaVuSans-44f" transform="translate(946.630859 0)"/>
      <use xlink:href="#DejaVuSans-20" transform="translate(1006.787109 0)"/>
      <use xlink:href="#DejaVuSans-28" transform="translate(1038.574219 0)"/>
      <use xlink:href="#DejaVuSans-43c" transform="translate(1077.587891 0)"/>
      <use xlink:href="#DejaVuSans-43a" transform="translate(1153.027344 0)"/>
      <use xlink:href="#DejaVuSans-441" transform="translate(1213.427734 0)"/>
      <use xlink:href="#DejaVuSans-29" transform="translate(1268.408203 0)"/>
     </g>
    </g>
   </g>
   <g id="line2d_39">
    <path d="M 305.7775 217.536 
L 305.7775 7.2 
" clip-path="url(#pe2779755cb)" style="fill: none; stroke-dasharray: 7.4,3.2; stroke-dashoffset: 0; stroke: #008000; stroke-opacity: 0.8; stroke-width: 2"/>
   </g>
   <g id="line2d_40">
    <path d="M 387.8675 217.536 
L 387.8675 7.2 
" clip-path="url(#pe2779755cb)" style="fill: none; stroke-dasharray: 7.4,3.2; stroke-dashoffset: 0; stroke: #800080; stroke-opacity: 0.8; stroke-width: 2"/>
   </g>
   <g id="line2d_41">
    <path d="M 305.7775 217.536 
L 305.7775 7.2 
" clip-path="url(#pe2779755cb)" style="fill: none; stroke-dasharray: 7.4,3.2; stroke-dashoffset: 0; stroke: #008000; stroke-opacity: 0.8; stroke-width: 2"/>
   </g>
   <g id="line2d_42">
    <path d="M 387.8675 217.536 
L 387.8675 7.2 
" clip-path="url(#pe2779755cb)" style="fill: none; stroke-dasharray: 7.4,3.2; stroke-dashoffset: 0; stroke: #800080; stroke-opacity: 0.8; stroke-width: 2"/>
   </g>
   <g id="line2d_43">
    <path d="M 59.5075 207.728696 
L 80.03 207.470862 
L 100.5525 207.209055 
L 121.075 206.839295 
L 141.5975 206.536796 
L 162.12 206.200084 
L 182.6425 205.733462 
L 203.165 205.285475 
L 223.6875 204.803018 
L 244.21 204.34874 
L 264.7325 203.837505 
L 285.255 203.355343 
L 305.7775 202.560286 
L 326.3 197.51313 
L 346.8225 194.146572 
L 367.345 190.542436 
L 387.8675 177.24565 
L 408.39 152.345035 
L 428.9125 130.10785 
L 449.435 109.935831 
L 469.9575 84.273998 
L 490.48 59.941485 
L 511.0025 38.899778 
L 531.525 17.336082 
" clip-path="url(#pe2779755cb)" style="fill: none; stroke: #0000ff; stroke-width: 2; stroke-linecap: square"/>
    <defs>
     <path id="m7d5214590a" d="M 0 -4 
L -4 4 
L 4 4 
z
" style="stroke: #0000ff; stroke-linejoin: miter"/>
    </defs>
    <g clip-path="url(#pe2779755cb)">
     <use xlink:href="#m7d5214590a" x="59.5075" y="207.728696" style="fill: #0000ff; stroke: #0000ff; stroke-linejoin: miter"/>
     <use xlink:href="#m7d5214590a" x="80.03" y="207.470862" style="fill: #0000ff; stroke: #0000ff; stroke-linejoin: miter"/>
     <use xlink:href="#m7d5214590a" x="100.5525" y="207.209055" style="fill: #0000ff; stroke: #0000ff; stroke-linejoin: miter"/>
     <use xlink:href="#m7d5214590a" x="121.075" y="206.839295" style="fill: #0000ff; stroke: #0000ff; stroke-linejoin: miter"/>
     <use xlink:href="#m7d5214590a" x="141.5975" y="206.536796" style="fill: #0000ff; stroke: #0000ff; stroke-linejoin: miter"/>
     <use xlink:href="#m7d5214590a" x="162.12" y="206.200084" style="fill: #0000ff; stroke: #0000ff; stroke-linejoin: miter"/>
     <use xlink:href="#m7d5214590a" x="182.6425" y="205.733462" style="fill: #0000ff; stroke: #0000ff; stroke-linejoin: miter"/>
     <use xlink:href="#m7d5214590a" x="203.165" y="205.285475" style="fill: #0000ff; stroke: #0000ff; stroke-linejoin: miter"/>
     <use xlink:href="#m7d5214590a" x="223.6875" y="204.803018" style="fill: #0000ff; stroke: #0000ff; stroke-linejoin: miter"/>
     <use xlink:href="#m7d5214590a" x="244.21" y="204.34874" style="fill: #0000ff; stroke: #0000ff; stroke-linejoin: miter"/>
     <use xlink:href="#m7d5214590a" x="264.7325" y="203.837505" style="fill: #0000ff; stroke: #0000ff; stroke-linejoin: miter"/>
     <use xlink:href="#m7d5214590a" x="285.255" y="203.355343" style="fill: #0000ff; stroke: #0000ff; stroke-linejoin: miter"/>
     <use xlink:href="#m7d5214590a" x="305.7775" y="202.560286" style="fill: #0000ff; stroke: #0000ff; stroke-linejoin: miter"/>
     <use xlink:href="#m7d5214590a" x="326.3" y="197.51313" style="fill: #0000ff; stroke: #0000ff; stroke-linejoin: miter"/>
     <use xlink:href="#m7d5214590a" x="346.8225" y="194.146572" style="fill: #0000ff; stroke: #0000ff; stroke-linejoin: miter"/>
     <use xlink:href="#m7d5214590a" x="367.345" y="190.542436" style="fill: #0000ff; stroke: #0000ff; stroke-linejoin: miter"/>
     <use xlink:href="#m7d5214590a" x="387.8675" y="177.24565" style="fill: #0000ff; stroke: #0000ff; stroke-linejoin: miter"/>
     <use xlink:href="#m7d5214590a" x="408.39" y="152.345035" style="fill: #0000ff; stroke: #0000ff; stroke-linejoin: miter"/>
     <use xlink:href="#m7d5214590a" x="428.9125" y="130.10785" style="fill: #0000ff; stroke: #0000ff; stroke-linejoin: miter"/>
     <use xlink:href="#m7d5214590a" x="449.435" y="109.935831" style="fill: #0000ff; stroke: #0000ff; stroke-linejoin: miter"/>
     <use xlink:href="#m7d5214590a" x="469.9575" y="84.273998" style="fill: #0000ff; stroke: #0000ff; stroke-linejoin: miter"/>
     <use xlink:href="#m7d5214590a" x="490.48" y="59.941485" style="fill: #0000ff; stroke: #0000ff; stroke-linejoin: miter"/>
     <use xlink:href="#m7d5214590a" x="511.0025" y="38.899778" style="fill: #0000ff; stroke: #0000ff; stroke-linejoin: miter"/>
     <use xlink:href="#m7d5214590a" x="531.525" y="17.336082" style="fill: #0000ff; stroke: #0000ff; stroke-linejoin: miter"/>
    </g>
   </g>
   <g id="line2d_44">
    <path d="M 59.5075 207.975273 
L 80.03 207.6426 
L 100.5525 207.329654 
L 121.075 207.044892 
L 141.5975 206.7243 
L 162.12 206.423668 
L 182.6425 206.082736 
L 203.165 205.714037 
L 223.6875 205.300291 
L 244.21 204.891317 
L 264.7325 204.494846 
L 285.255 204.091823 
L 305.7775 203.46706 
L 326.3 198.71163 
L 346.8225 195.561958 
L 367.345 192.976258 
L 387.8675 178.768199 
L 408.39 153.774534 
L 428.9125 131.845409 
L 449.435 113.069447 
L 469.9575 89.713509 
L 490.48 64.584978 
L 511.0025 36.496347 
L 531.525 16.760727 
" clip-path="url(#pe2779755cb)" style="fill: none; stroke: #e6774c; stroke-width: 2; stroke-linecap: square"/>
    <defs>
     <path id="m2505403378" d="M -4 4 
L 4 4 
L 4 -4 
L -4 -4 
z
" style="stroke: #e6774c; stroke-linejoin: miter"/>
    </defs>
    <g clip-path="url(#pe2779755cb)">
     <use xlink:href="#m2505403378" x="59.5075" y="207.975273" style="fill: #e6774c; stroke: #e6774c; stroke-linejoin: miter"/>
     <use xlink:href="#m2505403378" x="80.03" y="207.6426" style="fill: #e6774c; stroke: #e6774c; stroke-linejoin: miter"/>
     <use xlink:href="#m2505403378" x="100.5525" y="207.329654" style="fill: #e6774c; stroke: #e6774c; stroke-linejoin: miter"/>
     <use xlink:href="#m2505403378" x="121.075" y="207.044892" style="fill: #e6774c; stroke: #e6774c; stroke-linejoin: miter"/>
     <use xlink:href="#m2505403378" x="141.5975" y="206.7243" style="fill: #e6774c; stroke: #e6774c; stroke-linejoin: miter"/>
     <use xlink:href="#m2505403378" x="162.12" y="206.423668" style="fill: #e6774c; stroke: #e6774c; stroke-linejoin: miter"/>
     <use xlink:href="#m2505403378" x="182.6425" y="206.082736" style="fill: #e6774c; stroke: #e6774c; stroke-linejoin: miter"/>
     <use xlink:href="#m2505403378" x="203.165" y="205.714037" style="fill: #e6774c; stroke: #e6774c; stroke-linejoin: miter"/>
     <use xlink:href="#m2505403378" x="223.6875" y="205.300291" style="fill: #e6774c; stroke: #e6774c; stroke-linejoin: miter"/>
     <use xlink:href="#m2505403378" x="244.21" y="204.891317" style="fill: #e6774c; stroke: #e6774c; stroke-linejoin: miter"/>
     <use xlink:href="#m2505403378" x="264.7325" y="204.494846" style="fill: #e6774c; stroke: #e6774c; stroke-linejoin: miter"/>
     <use xlink:href="#m2505403378" x="285.255" y="204.091823" style="fill: #e6774c; stroke: #e6774c; stroke-linejoin: miter"/>
     <use xlink:href="#m2505403378" x="305.7775" y="203.46706" style="fill: #e6774c; stroke: #e6774c; stroke-linejoin: miter"/>
     <use xlink:href="#m2505403378" x="326.3" y="198.71163" style="fill: #e6774c; stroke: #e6774c; stroke-linejoin: miter"/>
     <use xlink:href="#m2505403378" x="346.8225" y="195.561958" style="fill: #e6774c; stroke: #e6774c; stroke-linejoin: miter"/>
     <use xlink:href="#m2505403378" x="367.345" y="192.976258" style="fill: #e6774c; stroke: #e6774c; stroke-linejoin: miter"/>
     <use xlink:href="#m2505403378" x="387.8675" y="178.768199" style="fill: #e6774c; stroke: #e6774c; stroke-linejoin: miter"/>
     <use xlink:href="#m2505403378" x="408.39" y="153.774534" style="fill: #e6774c; stroke: #e6774c; stroke-linejoin: miter"/>
     <use xlink:href="#m2505403378" x="428.9125" y="131.845409" style="fill: #e6774c; stroke: #e6774c; stroke-linejoin: miter"/>
     <use xlink:href="#m2505403378" x="449.435" y="113.069447" style="fill: #e6774c; stroke: #e6774c; stroke-linejoin: miter"/>
     <use xlink:href="#m2505403378" x="469.9575" y="89.713509" style="fill: #e6774c; stroke: #e6774c; stroke-linejoin: miter"/>
     <use xlink:href="#m2505403378" x="490.48" y="64.584978" style="fill: #e6774c; stroke: #e6774c; stroke-linejoin: miter"/>
     <use xlink:href="#m2505403378" x="511.0025" y="36.496347" style="fill: #e6774c; stroke: #e6774c; stroke-linejoin: miter"/>
     <use xlink:href="#m2505403378" x="531.525" y="16.760727" style="fill: #e6774c; stroke: #e6774c; stroke-linejoin: miter"/>
    </g>
   </g>
   <g id="line2d_45">
    <path d="M 59.5075 207.975162 
L 80.03 207.625528 
L 100.5525 207.316653 
L 121.075 207.047395 
L 141.5975 206.728745 
L 162.12 206.441448 
L 182.6425 206.082003 
L 203.165 205.721821 
L 223.6875 205.305401 
L 244.21 204.89554 
L 264.7325 204.498187 
L 285.255 204.094125 
L 305.7775 203.437819 
L 326.3 198.706635 
L 346.8225 195.558566 
L 367.345 192.776136 
L 387.8675 178.696822 
L 408.39 153.816083 
L 428.9125 131.636441 
L 449.435 112.62211 
L 469.9575 89.702367 
L 490.48 64.455731 
L 511.0025 36.28586 
L 531.525 17.95061 
" clip-path="url(#pe2779755cb)" style="fill: none; stroke: #237545; stroke-width: 2; stroke-linecap: square"/>
    <defs>
     <path id="mdf551e4ea7" d="M 0 -4 
L -0.898056 -1.236068 
L -3.804226 -1.236068 
L -1.453085 0.472136 
L -2.351141 3.236068 
L -0 1.527864 
L 2.351141 3.236068 
L 1.453085 0.472136 
L 3.804226 -1.236068 
L 0.898056 -1.236068 
z
" style="stroke: #237545; stroke-linejoin: bevel"/>
    </defs>
    <g clip-path="url(#pe2779755cb)">
     <use xlink:href="#mdf551e4ea7" x="59.5075" y="207.975162" style="fill: #237545; stroke: #237545; stroke-linejoin: bevel"/>
     <use xlink:href="#mdf551e4ea7" x="80.03" y="207.625528" style="fill: #237545; stroke: #237545; stroke-linejoin: bevel"/>
     <use xlink:href="#mdf551e4ea7" x="100.5525" y="207.316653" style="fill: #237545; stroke: #237545; stroke-linejoin: bevel"/>
     <use xlink:href="#mdf551e4ea7" x="121.075" y="207.047395" style="fill: #237545; stroke: #237545; stroke-linejoin: bevel"/>
     <use xlink:href="#mdf551e4ea7" x="141.5975" y="206.728745" style="fill: #237545; stroke: #237545; stroke-linejoin: bevel"/>
     <use xlink:href="#mdf551e4ea7" x="162.12" y="206.441448" style="fill: #237545; stroke: #237545; stroke-linejoin: bevel"/>
     <use xlink:href="#mdf551e4ea7" x="182.6425" y="206.082003" style="fill: #237545; stroke: #237545; stroke-linejoin: bevel"/>
     <use xlink:href="#mdf551e4ea7" x="203.165" y="205.721821" style="fill: #237545; stroke: #237545; stroke-linejoin: bevel"/>
     <use xlink:href="#mdf551e4ea7" x="223.6875" y="205.305401" style="fill: #237545; stroke: #237545; stroke-linejoin: bevel"/>
     <use xlink:href="#mdf551e4ea7" x="244.21" y="204.89554" style="fill: #237545; stroke: #237545; stroke-linejoin: bevel"/>
     <use xlink:href="#mdf551e4ea7" x="264.7325" y="204.498187" style="fill: #237545; stroke: #237545; stroke-linejoin: bevel"/>
     <use xlink:href="#mdf551e4ea7" x="285.255" y="204.094125" style="fill: #237545; stroke: #237545; stroke-linejoin: bevel"/>
     <use xlink:href="#mdf551e4ea7" x="305.7775" y="203.437819" style="fill: #237545; stroke: #237545; stroke-linejoin: bevel"/>
     <use xlink:href="#mdf551e4ea7" x="326.3" y="198.706635" style="fill: #237545; stroke: #237545; stroke-linejoin: bevel"/>
     <use xlink:href="#mdf551e4ea7" x="346.8225" y="195.558566" style="fill: #237545; stroke: #237545; stroke-linejoin: bevel"/>
     <use xlink:href="#mdf551e4ea7" x="367.345" y="192.776136" style="fill: #237545; stroke: #237545; stroke-linejoin: bevel"/>
     <use xlink:href="#mdf551e4ea7" x="387.8675" y="178.696822" style="fill: #237545; stroke: #237545; stroke-linejoin: bevel"/>
     <use xlink:href="#mdf551e4ea7" x="408.39" y="153.816083" style="fill: #237545; stroke: #237545; stroke-linejoin: bevel"/>
     <use xlink:href="#mdf551e4ea7" x="428.9125" y="131.636441" style="fill: #237545; stroke: #237545; stroke-linejoin: bevel"/>
     <use xlink:href="#mdf551e4ea7" x="449.435" y="112.62211" style="fill: #237545; stroke: #237545; stroke-linejoin: bevel"/>
     <use xlink:href="#mdf551e4ea7" x="469.9575" y="89.702367" style="fill: #237545; stroke: #237545; stroke-linejoin: bevel"/>
     <use xlink:href="#mdf551e4ea7" x="490.48" y="64.455731" style="fill: #237545; stroke: #237545; stroke-linejoin: bevel"/>
     <use xlink:href="#mdf551e4ea7" x="511.0025" y="36.28586" style="fill: #237545; stroke: #237545; stroke-linejoin: bevel"/>
     <use xlink:href="#mdf551e4ea7" x="531.525" y="17.95061" style="fill: #237545; stroke: #237545; stroke-linejoin: bevel"/>
    </g>
   </g>
   <g id="line2d_46">
    <path d="M 59.5075 207.87514 
L 80.03 207.531284 
L 100.5525 207.239442 
L 121.075 206.989772 
L 141.5975 206.662122 
L 162.12 206.37097 
L 182.6425 205.998376 
L 203.165 205.632941 
L 223.6875 205.195245 
L 244.21 204.778642 
L 264.7325 204.366331 
L 285.255 203.925584 
L 305.7775 203.297049 
L 326.3 201.655045 
L 346.8225 199.760027 
L 367.345 197.846115 
L 387.8675 192.608311 
L 408.39 181.170321 
L 428.9125 169.715547 
L 449.435 155.143199 
L 469.9575 138.783611 
L 490.48 122.892299 
L 511.0025 102.285248 
L 531.525 82.589407 
" clip-path="url(#pe2779755cb)" style="fill: none; stroke: #ff0000; stroke-width: 2; stroke-linecap: square"/>
    <defs>
     <path id="mad6b8a76fc" d="M 0 4 
C 1.060812 4 2.078319 3.578535 2.828427 2.828427 
C 3.578535 2.078319 4 1.060812 4 0 
C 4 -1.060812 3.578535 -2.078319 2.828427 -2.828427 
C 2.078319 -3.578535 1.060812 -4 0 -4 
C -1.060812 -4 -2.078319 -3.578535 -2.828427 -2.828427 
C -3.578535 -2.078319 -4 -1.060812 -4 0 
C -4 1.060812 -3.578535 2.078319 -2.828427 2.828427 
C -2.078319 3.578535 -1.060812 4 0 4 
z
" style="stroke: #ff0000"/>
    </defs>
    <g clip-path="url(#pe2779755cb)">
     <use xlink:href="#mad6b8a76fc" x="59.5075" y="207.87514" style="fill: #ff0000; stroke: #ff0000"/>
     <use xlink:href="#mad6b8a76fc" x="80.03" y="207.531284" style="fill: #ff0000; stroke: #ff0000"/>
     <use xlink:href="#mad6b8a76fc" x="100.5525" y="207.239442" style="fill: #ff0000; stroke: #ff0000"/>
     <use xlink:href="#mad6b8a76fc" x="121.075" y="206.989772" style="fill: #ff0000; stroke: #ff0000"/>
     <use xlink:href="#mad6b8a76fc" x="141.5975" y="206.662122" style="fill: #ff0000; stroke: #ff0000"/>
     <use xlink:href="#mad6b8a76fc" x="162.12" y="206.37097" style="fill: #ff0000; stroke: #ff0000"/>
     <use xlink:href="#mad6b8a76fc" x="182.6425" y="205.998376" style="fill: #ff0000; stroke: #ff0000"/>
     <use xlink:href="#mad6b8a76fc" x="203.165" y="205.632941" style="fill: #ff0000; stroke: #ff0000"/>
     <use xlink:href="#mad6b8a76fc" x="223.6875" y="205.195245" style="fill: #ff0000; stroke: #ff0000"/>
     <use xlink:href="#mad6b8a76fc" x="244.21" y="204.778642" style="fill: #ff0000; stroke: #ff0000"/>
     <use xlink:href="#mad6b8a76fc" x="264.7325" y="204.366331" style="fill: #ff0000; stroke: #ff0000"/>
     <use xlink:href="#mad6b8a76fc" x="285.255" y="203.925584" style="fill: #ff0000; stroke: #ff0000"/>
     <use xlink:href="#mad6b8a76fc" x="305.7775" y="203.297049" style="fill: #ff0000; stroke: #ff0000"/>
     <use xlink:href="#mad6b8a76fc" x="326.3" y="201.655045" style="fill: #ff0000; stroke: #ff0000"/>
     <use xlink:href="#mad6b8a76fc" x="346.8225" y="199.760027" style="fill: #ff0000; stroke: #ff0000"/>
     <use xlink:href="#mad6b8a76fc" x="367.345" y="197.846115" style="fill: #ff0000; stroke: #ff0000"/>
     <use xlink:href="#mad6b8a76fc" x="387.8675" y="192.608311" style="fill: #ff0000; stroke: #ff0000"/>
     <use xlink:href="#mad6b8a76fc" x="408.39" y="181.170321" style="fill: #ff0000; stroke: #ff0000"/>
     <use xlink:href="#mad6b8a76fc" x="428.9125" y="169.715547" style="fill: #ff0000; stroke: #ff0000"/>
     <use xlink:href="#mad6b8a76fc" x="449.435" y="155.143199" style="fill: #ff0000; stroke: #ff0000"/>
     <use xlink:href="#mad6b8a76fc" x="469.9575" y="138.783611" style="fill: #ff0000; stroke: #ff0000"/>
     <use xlink:href="#mad6b8a76fc" x="490.48" y="122.892299" style="fill: #ff0000; stroke: #ff0000"/>
     <use xlink:href="#mad6b8a76fc" x="511.0025" y="102.285248" style="fill: #ff0000; stroke: #ff0000"/>
     <use xlink:href="#mad6b8a76fc" x="531.525" y="82.589407" style="fill: #ff0000; stroke: #ff0000"/>
    </g>
   </g>
   <g id="line2d_47">
    <path d="M 59.5075 207.698967 
L 80.03 207.399831 
L 100.5525 207.17186 
L 121.075 206.893269 
L 141.5975 206.63644 
L 162.12 206.335124 
L 182.6425 206.000274 
L 203.165 205.636668 
L 223.6875 205.216267 
L 244.21 204.811861 
L 264.7325 204.382862 
L 285.255 203.913419 
L 305.7775 203.189496 
L 326.3 200.919511 
L 346.8225 198.977142 
L 367.345 197.093251 
L 387.8675 189.920052 
L 408.39 175.804515 
L 428.9125 160.994141 
L 449.435 144.221303 
L 469.9575 127.249121 
L 490.48 113.61893 
L 511.0025 90.2936 
L 531.525 66.228501 
" clip-path="url(#pe2779755cb)" style="fill: none; stroke: #b58fe3; stroke-width: 2; stroke-linecap: square"/>
    <defs>
     <path id="m4858ff58e9" d="M 0 5.656854 
L 5.656854 0 
L 0 -5.656854 
L -5.656854 0 
z
" style="stroke: #b58fe3; stroke-linejoin: miter"/>
    </defs>
    <g clip-path="url(#pe2779755cb)">
     <use xlink:href="#m4858ff58e9" x="59.5075" y="207.698967" style="fill: #b58fe3; stroke: #b58fe3; stroke-linejoin: miter"/>
     <use xlink:href="#m4858ff58e9" x="80.03" y="207.399831" style="fill: #b58fe3; stroke: #b58fe3; stroke-linejoin: miter"/>
     <use xlink:href="#m4858ff58e9" x="100.5525" y="207.17186" style="fill: #b58fe3; stroke: #b58fe3; stroke-linejoin: miter"/>
     <use xlink:href="#m4858ff58e9" x="121.075" y="206.893269" style="fill: #b58fe3; stroke: #b58fe3; stroke-linejoin: miter"/>
     <use xlink:href="#m4858ff58e9" x="141.5975" y="206.63644" style="fill: #b58fe3; stroke: #b58fe3; stroke-linejoin: miter"/>
     <use xlink:href="#m4858ff58e9" x="162.12" y="206.335124" style="fill: #b58fe3; stroke: #b58fe3; stroke-linejoin: miter"/>
     <use xlink:href="#m4858ff58e9" x="182.6425" y="206.000274" style="fill: #b58fe3; stroke: #b58fe3; stroke-linejoin: miter"/>
     <use xlink:href="#m4858ff58e9" x="203.165" y="205.636668" style="fill: #b58fe3; stroke: #b58fe3; stroke-linejoin: miter"/>
     <use xlink:href="#m4858ff58e9" x="223.6875" y="205.216267" style="fill: #b58fe3; stroke: #b58fe3; stroke-linejoin: miter"/>
     <use xlink:href="#m4858ff58e9" x="244.21" y="204.811861" style="fill: #b58fe3; stroke: #b58fe3; stroke-linejoin: miter"/>
     <use xlink:href="#m4858ff58e9" x="264.7325" y="204.382862" style="fill: #b58fe3; stroke: #b58fe3; stroke-linejoin: miter"/>
     <use xlink:href="#m4858ff58e9" x="285.255" y="203.913419" style="fill: #b58fe3; stroke: #b58fe3; stroke-linejoin: miter"/>
     <use xlink:href="#m4858ff58e9" x="305.7775" y="203.189496" style="fill: #b58fe3; stroke: #b58fe3; stroke-linejoin: miter"/>
     <use xlink:href="#m4858ff58e9" x="326.3" y="200.919511" style="fill: #b58fe3; stroke: #b58fe3; stroke-linejoin: miter"/>
     <use xlink:href="#m4858ff58e9" x="346.8225" y="198.977142" style="fill: #b58fe3; stroke: #b58fe3; stroke-linejoin: miter"/>
     <use xlink:href="#m4858ff58e9" x="367.345" y="197.093251" style="fill: #b58fe3; stroke: #b58fe3; stroke-linejoin: miter"/>
     <use xlink:href="#m4858ff58e9" x="387.8675" y="189.920052" style="fill: #b58fe3; stroke: #b58fe3; stroke-linejoin: miter"/>
     <use xlink:href="#m4858ff58e9" x="408.39" y="175.804515" style="fill: #b58fe3; stroke: #b58fe3; stroke-linejoin: miter"/>
     <use xlink:href="#m4858ff58e9" x="428.9125" y="160.994141" style="fill: #b58fe3; stroke: #b58fe3; stroke-linejoin: miter"/>
     <use xlink:href="#m4858ff58e9" x="449.435" y="144.221303" style="fill: #b58fe3; stroke: #b58fe3; stroke-linejoin: miter"/>
     <use xlink:href="#m4858ff58e9" x="469.9575" y="127.249121" style="fill: #b58fe3; stroke: #b58fe3; stroke-linejoin: miter"/>
     <use xlink:href="#m4858ff58e9" x="490.48" y="113.61893" style="fill: #b58fe3; stroke: #b58fe3; stroke-linejoin: miter"/>
     <use xlink:href="#m4858ff58e9" x="511.0025" y="90.2936" style="fill: #b58fe3; stroke: #b58fe3; stroke-linejoin: miter"/>
     <use xlink:href="#m4858ff58e9" x="531.525" y="66.228501" style="fill: #b58fe3; stroke: #b58fe3; stroke-linejoin: miter"/>
    </g>
   </g>
   <g id="patch_3">
    <path d="M 59.5075 217.536 
L 59.5075 7.2 
" style="fill: none; stroke: #000000; stroke-width: 0.8; stroke-linejoin: miter; stroke-linecap: square"/>
   </g>
   <g id="patch_4">
    <path d="M 552.0475 217.536 
L 552.0475 7.2 
" style="fill: none; stroke: #000000; stroke-width: 0.8; stroke-linejoin: miter; stroke-linecap: square"/>
   </g>
   <g id="patch_5">
    <path d="M 59.5075 217.536 
L 552.0475 217.536 
" style="fill: none; stroke: #000000; stroke-width: 0.8; stroke-linejoin: miter; stroke-linecap: square"/>
   </g>
   <g id="patch_6">
    <path d="M 59.5075 7.2 
L 552.0475 7.2 
" style="fill: none; stroke: #000000; stroke-width: 0.8; stroke-linejoin: miter; stroke-linecap: square"/>
   </g>
   <g id="text_22">
    <!-- L1 -->
    <g style="fill: #008000" transform="translate(308.855875 34.10398) scale(0.15 -0.15)">
     <defs>
      <path id="DejaVuSans-4c" d="M 628 4666 
L 1259 4666 
L 1259 531 
L 3531 531 
L 3531 0 
L 628 0 
L 628 4666 
z
" transform="scale(0.015625)"/>
     </defs>
     <use xlink:href="#DejaVuSans-4c"/>
     <use xlink:href="#DejaVuSans-31" transform="translate(55.712891 0)"/>
    </g>
   </g>
   <g id="text_23">
    <!-- L2 -->
    <g style="fill: #800080" transform="translate(390.945875 34.10398) scale(0.15 -0.15)">
     <use xlink:href="#DejaVuSans-4c"/>
     <use xlink:href="#DejaVuSans-32" transform="translate(55.712891 0)"/>
    </g>
   </g>
   <g id="legend_1">
    <g id="patch_7">
     <path d="M 68.6075 151.170938 
L 221.014219 151.170938 
Q 223.614219 151.170938 223.614219 148.570938 
L 223.614219 16.3 
Q 223.614219 13.7 221.014219 13.7 
L 68.6075 13.7 
Q 66.0075 13.7 66.0075 16.3 
L 66.0075 148.570938 
Q 66.0075 151.170938 68.6075 151.170938 
z
" style="fill: #ffffff; opacity: 0.8; stroke: #cccccc; stroke-linejoin: miter"/>
    </g>
    <g id="line2d_48">
     <path d="M 71.2075 24.227969 
L 84.2075 24.227969 
L 97.2075 24.227969 
" style="fill: none; stroke-dasharray: 7.4,3.2; stroke-dashoffset: 0; stroke: #008000; stroke-opacity: 0.8; stroke-width: 2"/>
    </g>
    <g id="text_24">
     <!-- L1 кэш (32 KiB) -->
     <g transform="translate(107.6075 28.777969) scale(0.13 -0.13)">
      <defs>
       <path id="DejaVuSans-44d" d="M 353 666 
Q 847 397 1338 397 
Q 1797 397 2125 664 
Q 2453 931 2513 1613 
L 738 1613 
L 738 2072 
L 2494 2072 
Q 2456 2400 2207 2748 
Q 1959 3097 1338 3097 
Q 856 3097 353 2828 
L 353 3366 
Q 844 3584 1363 3584 
Q 2181 3584 2651 3089 
Q 3122 2594 3122 1747 
Q 3122 903 2664 406 
Q 2206 -91 1403 -91 
Q 813 -91 353 134 
L 353 666 
z
" transform="scale(0.015625)"/>
       <path id="DejaVuSans-448" d="M 3216 459 
L 4697 459 
L 4697 3500 
L 5275 3500 
L 5275 0 
L 581 0 
L 581 3500 
L 1159 3500 
L 1159 459 
L 2638 459 
L 2638 3500 
L 3216 3500 
L 3216 459 
z
" transform="scale(0.015625)"/>
       <path id="DejaVuSans-4b" d="M 628 4666 
L 1259 4666 
L 1259 2694 
L 3353 4666 
L 4166 4666 
L 1850 2491 
L 4331 0 
L 3500 0 
L 1259 2247 
L 1259 0 
L 628 0 
L 628 4666 
z
" transform="scale(0.015625)"/>
       <path id="DejaVuSans-69" d="M 603 3500 
L 1178 3500 
L 1178 0 
L 603 0 
L 603 3500 
z
M 603 4863 
L 1178 4863 
L 1178 4134 
L 603 4134 
L 603 4863 
z
" transform="scale(0.015625)"/>
       <path id="DejaVuSans-42" d="M 1259 2228 
L 1259 519 
L 2272 519 
Q 2781 519 3026 730 
Q 3272 941 3272 1375 
Q 3272 1813 3026 2020 
Q 2781 2228 2272 2228 
L 1259 2228 
z
M 1259 4147 
L 1259 2741 
L 2194 2741 
Q 2656 2741 2882 2914 
Q 3109 3088 3109 3444 
Q 3109 3797 2882 3972 
Q 2656 4147 2194 4147 
L 1259 4147 
z
M 628 4666 
L 2241 4666 
Q 2963 4666 3353 4366 
Q 3744 4066 3744 3513 
Q 3744 3084 3544 2831 
Q 3344 2578 2956 2516 
Q 3422 2416 3680 2098 
Q 3938 1781 3938 1306 
Q 3938 681 3513 340 
Q 3088 0 2303 0 
L 628 0 
L 628 4666 
z
" transform="scale(0.015625)"/>
      </defs>
      <use xlink:href="#DejaVuSans-4c"/>
      <use xlink:href="#DejaVuSans-31" transform="translate(55.712891 0)"/>
      <use xlink:href="#DejaVuSans-20" transform="translate(119.335938 0)"/>
      <use xlink:href="#DejaVuSans-43a" transform="translate(151.123047 0)"/>
      <use xlink:href="#DejaVuSans-44d" transform="translate(211.523438 0)"/>
      <use xlink:href="#DejaVuSans-448" transform="translate(266.40625 0)"/>
      <use xlink:href="#DejaVuSans-20" transform="translate(357.910156 0)"/>
      <use xlink:href="#DejaVuSans-28" transform="translate(389.697266 0)"/>
      <use xlink:href="#DejaVuSans-33" transform="translate(428.710938 0)"/>
      <use xlink:href="#DejaVuSans-32" transform="translate(492.333984 0)"/>
      <use xlink:href="#DejaVuSans-20" transform="translate(555.957031 0)"/>
      <use xlink:href="#DejaVuSans-4b" transform="translate(587.744141 0)"/>
      <use xlink:href="#DejaVuSans-69" transform="translate(653.320312 0)"/>
      <use xlink:href="#DejaVuSans-42" transform="translate(681.103516 0)"/>
      <use xlink:href="#DejaVuSans-29" transform="translate(749.707031 0)"/>
     </g>
    </g>
    <g id="line2d_49">
     <path d="M 71.2075 43.309531 
L 84.2075 43.309531 
L 97.2075 43.309531 
" style="fill: none; stroke-dasharray: 7.4,3.2; stroke-dashoffset: 0; stroke: #800080; stroke-opacity: 0.8; stroke-width: 2"/>
    </g>
    <g id="text_25">
     <!-- L2 кэш (512 KiB) -->
     <g transform="translate(107.6075 47.859531) scale(0.13 -0.13)">
      <use xlink:href="#DejaVuSans-4c"/>
      <use xlink:href="#DejaVuSans-32" transform="translate(55.712891 0)"/>
      <use xlink:href="#DejaVuSans-20" transform="translate(119.335938 0)"/>
      <use xlink:href="#DejaVuSans-43a" transform="translate(151.123047 0)"/>
      <use xlink:href="#DejaVuSans-44d" transform="translate(211.523438 0)"/>
      <use xlink:href="#DejaVuSans-448" transform="translate(266.40625 0)"/>
      <use xlink:href="#DejaVuSans-20" transform="translate(357.910156 0)"/>
      <use xlink:href="#DejaVuSans-28" transform="translate(389.697266 0)"/>
      <use xlink:href="#DejaVuSans-35" transform="translate(428.710938 0)"/>
      <use xlink:href="#DejaVuSans-31" transform="translate(492.333984 0)"/>
      <use xlink:href="#DejaVuSans-32" transform="translate(555.957031 0)"/>
      <use xlink:href="#DejaVuSans-20" transform="translate(619.580078 0)"/>
      <use xlink:href="#DejaVuSans-4b" transform="translate(651.367188 0)"/>
      <use xlink:href="#DejaVuSans-69" transform="translate(716.943359 0)"/>
      <use xlink:href="#DejaVuSans-42" transform="translate(744.726562 0)"/>
      <use xlink:href="#DejaVuSans-29" transform="translate(813.330078 0)"/>
     </g>
    </g>
    <g id="line2d_50">
     <path d="M 71.2075 62.391094 
L 84.2075 62.391094 
L 97.2075 62.391094 
" style="fill: none; stroke: #0000ff; stroke-width: 2; stroke-linecap: square"/>
     <g>
      <use xlink:href="#m7d5214590a" x="84.2075" y="62.391094" style="fill: #0000ff; stroke: #0000ff; stroke-linejoin: miter"/>
     </g>
    </g>
    <g id="text_26">
     <!-- BS -->
     <g transform="translate(107.6075 66.941094) scale(0.13 -0.13)">
      <defs>
       <path id="DejaVuSans-53" d="M 3425 4513 
L 3425 3897 
Q 3066 4069 2747 4153 
Q 2428 4238 2131 4238 
Q 1616 4238 1336 4038 
Q 1056 3838 1056 3469 
Q 1056 3159 1242 3001 
Q 1428 2844 1947 2747 
L 2328 2669 
Q 3034 2534 3370 2195 
Q 3706 1856 3706 1288 
Q 3706 609 3251 259 
Q 2797 -91 1919 -91 
Q 1588 -91 1214 -16 
Q 841 59 441 206 
L 441 856 
Q 825 641 1194 531 
Q 1563 422 1919 422 
Q 2459 422 2753 634 
Q 3047 847 3047 1241 
Q 3047 1584 2836 1778 
Q 2625 1972 2144 2069 
L 1759 2144 
Q 1053 2284 737 2584 
Q 422 2884 422 3419 
Q 422 4038 858 4394 
Q 1294 4750 2059 4750 
Q 2388 4750 2728 4690 
Q 3069 4631 3425 4513 
z
" transform="scale(0.015625)"/>
      </defs>
      <use xlink:href="#DejaVuSans-42"/>
      <use xlink:href="#DejaVuSans-53" transform="translate(66.853516 0)"/>
     </g>
    </g>
    <g id="line2d_51">
     <path d="M 71.2075 81.472656 
L 84.2075 81.472656 
L 97.2075 81.472656 
" style="fill: none; stroke: #e6774c; stroke-width: 2; stroke-linecap: square"/>
     <g>
      <use xlink:href="#m2505403378" x="84.2075" y="81.472656" style="fill: #e6774c; stroke: #e6774c; stroke-linejoin: miter"/>
     </g>
    </g>
    <g id="text_27">
     <!-- BL -->
     <g transform="translate(107.6075 86.022656) scale(0.13 -0.13)">
      <use xlink:href="#DejaVuSans-42"/>
      <use xlink:href="#DejaVuSans-4c" transform="translate(68.603516 0)"/>
     </g>
    </g>
    <g id="line2d_52">
     <path d="M 71.2075 100.554219 
L 84.2075 100.554219 
L 97.2075 100.554219 
" style="fill: none; stroke: #237545; stroke-width: 2; stroke-linecap: square"/>
     <g>
      <use xlink:href="#mdf551e4ea7" x="84.2075" y="100.554219" style="fill: #237545; stroke: #237545; stroke-linejoin: bevel"/>
     </g>
    </g>
    <g id="text_28">
     <!-- Prefetch -->
     <g transform="translate(107.6075 105.104219) scale(0.13 -0.13)">
      <defs>
       <path id="DejaVuSans-50" d="M 1259 4147 
L 1259 2394 
L 2053 2394 
Q 2494 2394 2734 2622 
Q 2975 2850 2975 3272 
Q 2975 3691 2734 3919 
Q 2494 4147 2053 4147 
L 1259 4147 
z
M 628 4666 
L 2053 4666 
Q 2838 4666 3239 4311 
Q 3641 3956 3641 3272 
Q 3641 2581 3239 2228 
Q 2838 1875 2053 1875 
L 1259 1875 
L 1259 0 
L 628 0 
L 628 4666 
z
" transform="scale(0.015625)"/>
       <path id="DejaVuSans-72" d="M 2631 2963 
Q 2534 3019 2420 3045 
Q 2306 3072 2169 3072 
Q 1681 3072 1420 2755 
Q 1159 2438 1159 1844 
L 1159 0 
L 581 0 
L 581 3500 
L 1159 3500 
L 1159 2956 
Q 1341 3275 1631 3429 
Q 1922 3584 2338 3584 
Q 2397 3584 2469 3576 
Q 2541 3569 2628 3553 
L 2631 2963 
z
" transform="scale(0.015625)"/>
       <path id="DejaVuSans-65" d="M 3597 1894 
L 3597 1613 
L 953 1613 
Q 991 1019 1311 708 
Q 1631 397 2203 397 
Q 2534 397 2845 478 
Q 3156 559 3463 722 
L 3463 178 
Q 3153 47 2828 -22 
Q 2503 -91 2169 -91 
Q 1331 -91 842 396 
Q 353 884 353 1716 
Q 353 2575 817 3079 
Q 1281 3584 2069 3584 
Q 2775 3584 3186 3129 
Q 3597 2675 3597 1894 
z
M 3022 2063 
Q 3016 2534 2758 2815 
Q 2500 3097 2075 3097 
Q 1594 3097 1305 2825 
Q 1016 2553 972 2059 
L 3022 2063 
z
" transform="scale(0.015625)"/>
       <path id="DejaVuSans-66" d="M 2375 4863 
L 2375 4384 
L 1825 4384 
Q 1516 4384 1395 4259 
Q 1275 4134 1275 3809 
L 1275 3500 
L 2222 3500 
L 2222 3053 
L 1275 3053 
L 1275 0 
L 697 0 
L 697 3053 
L 147 3053 
L 147 3500 
L 697 3500 
L 697 3744 
Q 697 4328 969 4595 
Q 1241 4863 1831 4863 
L 2375 4863 
z
" transform="scale(0.015625)"/>
       <path id="DejaVuSans-74" d="M 1172 4494 
L 1172 3500 
L 2356 3500 
L 2356 3053 
L 1172 3053 
L 1172 1153 
Q 1172 725 1289 603 
Q 1406 481 1766 481 
L 2356 481 
L 2356 0 
L 1766 0 
Q 1100 0 847 248 
Q 594 497 594 1153 
L 594 3053 
L 172 3053 
L 172 3500 
L 594 3500 
L 594 4494 
L 1172 4494 
z
" transform="scale(0.015625)"/>
       <path id="DejaVuSans-63" d="M 3122 3366 
L 3122 2828 
Q 2878 2963 2633 3030 
Q 2388 3097 2138 3097 
Q 1578 3097 1268 2742 
Q 959 2388 959 1747 
Q 959 1106 1268 751 
Q 1578 397 2138 397 
Q 2388 397 2633 464 
Q 2878 531 3122 666 
L 3122 134 
Q 2881 22 2623 -34 
Q 2366 -91 2075 -91 
Q 1284 -91 818 406 
Q 353 903 353 1747 
Q 353 2603 823 3093 
Q 1294 3584 2113 3584 
Q 2378 3584 2631 3529 
Q 2884 3475 3122 3366 
z
" transform="scale(0.015625)"/>
       <path id="DejaVuSans-68" d="M 3513 2113 
L 3513 0 
L 2938 0 
L 2938 2094 
Q 2938 2591 2744 2837 
Q 2550 3084 2163 3084 
Q 1697 3084 1428 2787 
Q 1159 2491 1159 1978 
L 1159 0 
L 581 0 
L 581 4863 
L 1159 4863 
L 1159 2956 
Q 1366 3272 1645 3428 
Q 1925 3584 2291 3584 
Q 2894 3584 3203 3211 
Q 3513 2838 3513 2113 
z
" transform="scale(0.015625)"/>
      </defs>
      <use xlink:href="#DejaVuSans-50"/>
      <use xlink:href="#DejaVuSans-72" transform="translate(58.552734 0)"/>
      <use xlink:href="#DejaVuSans-65" transform="translate(97.416016 0)"/>
      <use xlink:href="#DejaVuSans-66" transform="translate(158.939453 0)"/>
      <use xlink:href="#DejaVuSans-65" transform="translate(194.144531 0)"/>
      <use xlink:href="#DejaVuSans-74" transform="translate(255.667969 0)"/>
      <use xlink:href="#DejaVuSans-63" transform="translate(294.876953 0)"/>
      <use xlink:href="#DejaVuSans-68" transform="translate(349.857422 0)"/>
     </g>
    </g>
    <g id="line2d_53">
     <path d="M 71.2075 119.635781 
L 84.2075 119.635781 
L 97.2075 119.635781 
" style="fill: none; stroke: #ff0000; stroke-width: 2; stroke-linecap: square"/>
     <g>
      <use xlink:href="#mad6b8a76fc" x="84.2075" y="119.635781" style="fill: #ff0000; stroke: #ff0000"/>
     </g>
    </g>
    <g id="text_29">
     <!-- Eyt -->
     <g transform="translate(107.6075 124.185781) scale(0.13 -0.13)">
      <defs>
       <path id="DejaVuSans-45" d="M 628 4666 
L 3578 4666 
L 3578 4134 
L 1259 4134 
L 1259 2753 
L 3481 2753 
L 3481 2222 
L 1259 2222 
L 1259 531 
L 3634 531 
L 3634 0 
L 628 0 
L 628 4666 
z
" transform="scale(0.015625)"/>
       <path id="DejaVuSans-79" d="M 2059 -325 
Q 1816 -950 1584 -1140 
Q 1353 -1331 966 -1331 
L 506 -1331 
L 506 -850 
L 844 -850 
Q 1081 -850 1212 -737 
Q 1344 -625 1503 -206 
L 1606 56 
L 191 3500 
L 800 3500 
L 1894 763 
L 2988 3500 
L 3597 3500 
L 2059 -325 
z
" transform="scale(0.015625)"/>
      </defs>
      <use xlink:href="#DejaVuSans-45"/>
      <use xlink:href="#DejaVuSans-79" transform="translate(63.183594 0)"/>
      <use xlink:href="#DejaVuSans-74" transform="translate(122.363281 0)"/>
     </g>
    </g>
    <g id="line2d_54">
     <path d="M 71.2075 138.717344 
L 84.2075 138.717344 
L 97.2075 138.717344 
" style="fill: none; stroke: #b58fe3; stroke-width: 2; stroke-linecap: square"/>
     <g>
      <use xlink:href="#m4858ff58e9" x="84.2075" y="138.717344" style="fill: #b58fe3; stroke: #b58fe3; stroke-linejoin: miter"/>
     </g>
    </g>
    <g id="text_30">
     <!-- EytBL -->
     <g transform="translate(107.6075 143.267344) scale(0.13 -0.13)">
      <use xlink:href="#DejaVuSans-45"/>
      <use xlink:href="#DejaVuSans-79" transform="translate(63.183594 0)"/>
      <use xlink:href="#DejaVuSans-74" transform="translate(122.363281 0)"/>
      <use xlink:href="#DejaVuSans-42" transform="translate(161.572266 0)"/>
      <use xlink:href="#DejaVuSans-4c" transform="translate(230.175781 0)"/>
     </g>
    </g>
   </g>
  </g>
 </g>
 <defs>
  <clipPath id="pe2779755cb">
   <rect x="59.5075" y="7.2" width="492.54" height="210.336"/>
  </clipPath>
 </defs>
</svg>
